{"glyphs":{"0":{"ha":503,"x_min":-1,"x_max":421,"o":"m 215 997 q 217 997 215 997 q 322 940 278 997 q 379 822 356 897 q 421 500 421 689 q 376 168 421 304 q 317 49 351 92 q 207 -8 269 -8 q 93 49 140 -8 q 33 168 56 92 q 0 439 0 279 q 1 496 0 467 q 54 821 8 685 q 113 939 79 896 q 215 997 157 997 m 217 900 q 189 879 206 900 q 146 790 167 849 q 99 492 106 667 q 97 442 97 467 q 126 196 97 293 q 167 111 143 139 q 207 89 186 89 q 242 111 224 89 q 283 197 265 139 q 324 500 324 319 q 286 793 324 674 q 246 881 268 851 q 217 900 231 900 z "},"1":{"ha":458,"x_min":0,"x_max":376,"o":"m 265 1003 l 251 99 l 375 99 l 375 1 l 31 1 l 31 99 l 154 99 l 165 768 l 68 674 l 0 742 l 265 1003 z "},"2":{"ha":563,"x_min":0,"x_max":481,"o":"m 346 994 q 349 994 347 994 q 429 975 396 994 q 476 897 468 950 q 479 865 479 882 q 472 804 479 839 q 396 571 457 715 q 167 106 322 396 l 444 119 l 449 22 l 0 0 l 42 76 q 306 608 228 421 q 378 822 363 743 q 382 867 382 847 q 381 882 382 875 q 379 892 381 882 q 346 897 369 897 q 329 897 338 897 q 244 875 293 893 q 192 855 218 867 q 151 836 165 843 l 138 829 l 90 914 q 211 967 146 944 q 318 993 271 988 q 346 994 333 994 z "},"3":{"ha":514,"x_min":0,"x_max":432,"o":"m 431 993 l 146 501 q 217 469 183 488 q 311 399 276 438 q 360 282 360 346 q 300 131 360 196 q 182 47 256 82 q 105 19 146 31 q 42 4 64 7 l 19 0 l 7 96 q 142 136 75 106 q 228 196 197 161 q 263 282 263 233 q 239 334 263 308 q 171 383 215 360 q 63 426 118 413 l 0 443 l 251 876 l 28 853 l 18 949 l 431 993 z "},"4":{"ha":586,"x_min":0,"x_max":504,"o":"m 351 993 l 438 947 l 167 447 l 356 456 l 358 658 l 456 658 l 453 460 l 500 463 l 504 365 l 451 363 l 447 1 l 350 3 l 354 358 l 0 343 l 351 993 z "},"5":{"ha":471,"x_min":0,"x_max":389,"o":"m 0 992 l 367 981 l 364 883 l 97 892 l 97 592 q 225 651 156 651 q 226 651 226 651 q 318 613 279 650 q 367 529 350 581 q 388 385 388 467 q 383 315 388 351 q 326 104 372 192 q 176 -8 267 -8 q 174 -7 175 -8 q 88 22 124 -7 q 32 92 51 51 q 14 133 21 111 q 6 165 7 154 l 3 176 l 99 192 q 118 136 104 163 q 176 89 142 89 q 240 150 208 89 q 288 325 276 219 q 290 382 290 353 q 275 499 290 451 q 250 543 265 529 q 225 554 239 554 q 136 486 183 554 q 94 407 110 447 l 0 425 l 0 992 z "},"6":{"ha":500,"x_min":0,"x_max":418,"o":"m 242 992 l 328 949 q 158 533 226 744 q 238 551 196 551 q 264 549 250 551 q 389 439 347 536 q 417 288 417 372 q 417 260 417 274 q 363 83 410 156 q 292 18 335 43 q 199 -7 250 -7 q 197 -7 199 -7 q 57 46 108 -7 q 3 179 13 94 q 0 231 0 203 q 51 518 0 343 q 131 742 83 624 q 210 926 178 861 l 242 992 m 236 454 q 232 454 235 454 q 190 439 211 453 q 142 383 164 422 q 100 265 110 328 q 97 224 97 243 q 100 190 97 206 q 128 114 106 138 q 196 90 150 90 q 199 90 197 90 q 282 138 250 90 q 319 265 314 188 q 319 286 319 276 q 299 401 319 353 q 250 453 279 449 q 236 454 243 454 z "},"7":{"ha":483,"x_min":0,"x_max":401,"o":"m 400 992 l 117 -1 l 24 25 l 271 890 l 3 882 l 0 979 l 400 992 z "},"8":{"ha":514,"x_min":-1,"x_max":432,"o":"m 235 997 q 247 997 242 997 q 386 938 340 994 q 419 832 419 896 q 418 800 419 817 q 275 506 401 671 q 424 231 393 365 q 431 165 431 196 q 403 67 431 108 q 231 -8 353 -6 q 219 -8 225 -8 q 36 57 92 -8 q 0 167 0 100 q 6 222 0 193 q 149 503 32 350 q 29 792 29 647 q 29 808 29 800 q 90 947 35 896 q 235 997 146 997 m 243 900 q 235 900 239 900 q 228 900 231 900 q 156 875 182 899 q 126 803 129 851 q 126 793 126 797 q 211 582 126 693 q 322 813 310 718 q 322 832 322 822 q 310 876 322 861 q 243 900 293 899 m 214 426 q 101 203 121 294 q 97 165 97 182 q 111 119 97 136 q 219 89 138 89 q 229 89 224 89 q 322 122 301 90 q 333 167 333 138 q 328 208 333 186 q 214 426 306 307 z "},"9":{"ha":501,"x_min":-1,"x_max":419,"o":"m 218 1003 q 221 1003 219 1003 q 360 949 308 1003 q 415 815 406 900 q 418 763 418 790 q 367 475 418 650 q 289 251 336 369 q 211 67 242 132 l 179 0 l 92 43 q 261 463 194 249 q 174 438 219 438 q 156 439 164 438 q 29 549 71 449 q 0 701 0 615 q 1 729 0 715 q 56 910 7 836 q 124 976 82 950 q 218 1003 167 1001 m 219 906 q 136 856 168 904 q 97 724 103 804 q 97 703 97 714 q 118 588 97 635 q 167 536 139 539 q 176 535 171 535 q 222 553 199 535 q 274 613 249 572 q 317 707 300 656 q 321 767 321 739 q 318 804 321 788 q 289 882 313 857 q 221 906 267 906 q 219 906 221 906 z "}," ":{"ha":250,"x_min":0,"x_max":0,"o":""},"!":{"ha":186,"x_min":0,"x_max":104,"o":"m 7 992 l 104 990 l 97 163 l 0 163 l 7 992 m 3 82 l 100 81 l 99 1 l 1 3 l 3 82 z "},"\"":{"ha":299,"x_min":0,"x_max":217,"o":"m 133 921 l 215 917 l 208 764 l 125 768 l 133 921 m 8 921 l 90 917 l 83 764 l 0 768 l 8 921 z "},"#":{"ha":758,"x_min":0,"x_max":676,"o":"m 171 992 l 268 982 l 238 676 l 479 692 l 508 992 l 606 982 l 576 699 l 669 704 l 676 607 l 568 600 l 547 392 l 639 392 l 639 294 l 538 294 l 508 1 l 413 11 l 440 294 l 200 294 l 171 1 l 75 11 l 103 294 l 0 294 l 0 392 l 113 392 l 129 572 l 38 567 l 31 664 l 139 671 l 171 992 m 469 594 l 228 579 l 210 392 l 450 392 l 469 594 z "},"$":{"ha":524,"x_min":0,"x_max":442,"o":"m 160 992 l 257 990 l 256 861 q 383 871 322 871 q 385 871 383 871 l 385 774 q 239 760 313 774 q 139 728 176 747 q 99 686 104 708 q 96 669 96 676 q 128 614 96 644 q 247 526 157 583 q 385 426 347 464 q 440 300 440 368 q 436 263 440 282 q 342 161 418 197 q 257 133 306 143 l 256 1 l 158 1 l 160 121 q 96 119 128 119 q 43 121 64 119 l 50 218 q 96 217 68 217 q 199 222 151 217 q 300 249 263 231 q 342 288 336 265 q 344 306 344 297 q 315 358 344 328 q 196 444 286 388 q 58 546 94 508 q 0 674 0 604 q 4 708 0 692 q 93 813 19 774 q 158 840 122 829 l 160 992 z "},"&":{"ha":568,"x_min":0,"x_max":486,"o":"m 199 993 q 208 993 203 993 q 271 969 242 992 q 310 917 300 947 q 318 861 318 892 q 310 789 318 832 q 243 578 294 713 q 269 508 257 540 q 346 332 303 426 q 371 385 358 358 q 388 426 383 413 l 393 440 l 485 407 q 397 222 451 317 l 485 46 l 400 0 q 335 129 372 51 q 278 67 306 93 q 118 -4 200 -4 q 115 -4 117 -4 q 51 17 81 -3 q 10 67 21 38 q 0 125 0 93 q 8 194 0 153 q 113 508 25 282 q 140 578 126 543 q 82 801 93 713 q 79 850 79 829 q 96 931 79 897 q 138 976 108 958 q 199 993 167 993 m 189 897 q 183 889 188 897 q 178 844 178 876 q 179 813 178 829 q 194 733 183 781 q 214 807 208 778 q 219 861 219 838 q 217 886 219 878 q 215 892 217 889 q 208 896 215 896 q 201 896 204 896 q 197 897 200 896 q 192 897 193 897 q 189 897 190 897 m 192 443 q 103 175 118 251 q 99 126 99 149 q 101 100 99 108 q 102 96 101 99 q 108 93 103 93 q 117 93 114 93 q 118 93 118 93 q 213 139 163 93 q 286 228 249 172 q 192 443 235 339 z "},"'":{"ha":174,"x_min":0,"x_max":92,"o":"m 8 921 l 90 917 l 83 764 l 0 768 l 8 921 z "},"(":{"ha":326,"x_min":0,"x_max":244,"o":"m 185 992 l 242 913 q 137 749 176 867 q 97 493 97 631 q 97 479 97 486 q 142 226 100 335 q 244 89 182 119 l 201 1 q 50 192 104 49 q 0 476 3 317 q 0 497 0 488 q 45 791 0 658 q 185 992 90 924 z "},")":{"ha":326,"x_min":0,"x_max":244,"o":"m 60 992 q 199 791 154 924 q 244 497 244 658 q 244 476 244 488 q 194 192 242 317 q 43 1 140 49 l 0 89 q 103 226 63 119 q 147 479 144 335 q 147 494 147 486 q 108 749 147 631 q 3 913 68 867 l 60 992 z "},"+":{"ha":311,"x_min":0,"x_max":229,"o":"m 65 608 l 163 608 l 163 525 l 228 525 l 228 428 l 163 428 l 163 350 l 65 350 l 65 428 l 0 428 l 0 525 l 65 525 l 65 608 z "},",":{"ha":178,"x_min":0,"x_max":96,"o":"m 15 82 l 94 82 l 93 0 l 0 -68 l 14 1 l 15 82 z "},"-":{"ha":311,"x_min":0,"x_max":229,"o":"m 0 525 l 228 525 l 228 428 l 0 428 l 0 525 z "},".":{"ha":181,"x_min":0,"x_max":99,"o":"m 1 85 l 99 83 l 97 1 l 0 3 l 1 85 z "},"/":{"ha":418,"x_min":0,"x_max":336,"o":"m 240 992 l 335 968 l 94 1 l 0 25 l 240 992 z "},":":{"ha":181,"x_min":0,"x_max":99,"o":"m 1 744 l 99 743 l 97 663 l 0 664 l 1 744 m 1 238 l 99 236 l 97 154 l 0 156 l 1 238 z "},";":{"ha":185,"x_min":0,"x_max":103,"o":"m 6 744 l 103 743 l 101 663 l 4 664 l 6 744 m 94 235 l 93 153 l 0 85 l 14 154 l 15 235 l 94 235 z "},"<":{"ha":803,"x_min":0,"x_max":721,"o":"m 676 781 l 719 693 l 229 443 l 719 232 l 682 142 l 0 436 l 676 781 z "},"=":{"ha":311,"x_min":0,"x_max":229,"o":"m 0 610 l 228 610 l 228 513 l 0 513 l 0 610 m 0 432 l 228 432 l 228 335 l 0 335 l 0 432 z "},">":{"ha":803,"x_min":0,"x_max":721,"o":"m 44 781 l 719 436 l 39 142 l 0 232 l 492 443 l 0 693 l 44 781 z "},"?":{"ha":522,"x_min":-1,"x_max":440,"o":"m 247 994 q 250 994 249 994 q 389 938 336 994 q 440 789 440 881 q 440 778 440 783 q 197 318 432 574 l 197 171 l 100 171 l 100 357 l 114 371 q 284 600 228 493 q 343 781 340 707 q 343 789 343 785 q 317 872 343 843 q 251 897 293 897 q 246 897 249 897 q 168 873 196 896 q 121 810 140 850 q 100 742 107 778 q 97 717 99 728 q 99 710 97 714 l 97 711 q 97 715 97 713 l 3 693 q 1 722 0 704 q 4 757 1 739 q 33 850 13 807 q 113 950 60 908 q 243 994 167 992 q 247 994 244 994 m 103 82 l 200 81 l 199 1 l 101 3 l 103 82 z "},"@":{"ha":764,"x_min":-1,"x_max":682,"o":"m 361 994 q 505 961 442 994 q 607 872 568 928 q 681 617 678 771 q 681 606 681 611 q 633 374 681 474 q 572 288 608 318 q 490 257 535 257 q 471 260 481 257 q 410 303 433 267 q 388 356 396 325 q 310 311 353 311 q 304 311 307 311 q 247 340 271 313 q 221 389 231 360 q 210 469 210 425 q 211 499 210 483 q 240 611 217 564 q 336 682 275 678 q 346 682 340 682 q 379 675 363 681 l 383 715 l 481 703 q 469 558 472 636 l 471 557 l 469 554 q 469 514 469 533 q 479 388 469 433 q 492 356 485 365 q 492 354 492 354 q 510 363 499 354 q 546 415 529 379 q 583 607 583 496 q 583 615 583 611 q 528 815 582 739 q 361 897 471 897 q 357 897 358 897 q 172 778 244 897 q 97 493 101 661 q 97 478 97 485 q 161 210 97 317 q 347 94 228 94 q 349 94 347 94 q 423 108 389 94 q 476 141 457 122 q 510 178 496 160 q 528 211 524 197 l 533 224 l 625 193 q 616 172 622 185 q 587 125 610 158 q 535 66 564 92 q 456 19 506 40 q 349 -3 407 -3 q 347 -3 349 -3 q 190 42 260 -3 q 76 161 121 86 q 0 476 0 290 q 0 494 0 486 q 89 829 4 690 q 203 949 135 904 q 356 994 272 994 q 361 994 358 994 m 343 585 q 342 585 343 585 q 326 565 336 583 q 308 492 311 538 q 307 472 307 482 q 314 419 307 440 q 342 475 328 440 q 369 556 358 513 q 361 569 365 564 q 343 585 353 585 z "},"A":{"ha":599,"x_min":0,"x_max":517,"o":"m 233 992 l 328 989 l 517 18 l 421 0 l 349 372 l 181 356 l 94 -3 l 0 21 l 233 992 m 275 751 l 204 456 l 331 468 l 275 751 z "},"B":{"ha":561,"x_min":0,"x_max":479,"o":"m 90 996 q 103 996 97 996 q 233 985 174 994 q 374 936 321 969 q 428 878 407 914 q 450 801 450 843 q 383 656 450 729 q 256 553 336 604 q 164 500 214 526 l 478 328 l 0 -14 l 0 479 l 0 532 l 0 946 l 0 992 l 46 994 q 90 996 63 996 m 104 899 q 101 899 103 899 q 97 899 99 899 l 97 575 q 204 635 156 604 q 313 722 274 679 q 353 801 353 767 q 346 831 353 819 q 321 854 339 842 q 217 889 285 878 q 104 899 167 897 m 97 426 l 97 174 l 296 317 l 97 426 z "},"C":{"ha":489,"x_min":-1,"x_max":407,"o":"m 201 1000 q 258 985 228 999 q 328 936 292 968 q 365 901 347 919 q 390 872 382 883 l 400 861 l 324 801 q 264 863 297 833 q 215 897 238 888 q 194 903 200 906 q 167 871 183 900 q 132 771 147 835 q 97 469 100 643 q 97 444 97 457 q 124 181 97 286 q 156 99 138 125 q 171 83 165 83 l 174 86 q 199 103 189 93 q 257 164 224 125 q 290 208 274 185 q 315 246 307 232 l 325 258 l 407 207 q 332 103 374 156 q 263 29 294 57 q 172 -14 214 -14 q 171 -14 171 -14 q 75 44 114 -14 q 29 157 47 85 q 0 443 0 274 q 0 471 0 457 q 38 794 3 656 q 82 917 56 869 q 163 996 115 979 q 201 1000 182 1001 z "},"D":{"ha":490,"x_min":0,"x_max":408,"o":"m 0 1001 l 60 989 q 229 908 144 971 q 353 767 303 854 q 408 563 404 681 q 408 544 408 553 q 391 410 408 476 q 345 294 374 344 q 283 199 317 244 q 216 123 250 154 q 153 69 182 92 q 108 35 125 47 q 90 24 90 24 l 19 -18 l 0 1001 m 100 872 l 113 163 q 178 226 147 192 q 241 310 208 261 q 292 419 274 358 q 311 546 311 481 q 311 558 311 551 q 172 831 306 732 q 100 872 139 854 z "},"E":{"ha":438,"x_min":0,"x_max":356,"o":"m 0 992 l 356 957 l 346 860 l 99 885 l 104 461 l 268 464 l 269 367 l 106 364 l 110 119 l 325 161 l 343 65 l 14 1 l 0 992 z "},"F":{"ha":542,"x_min":0,"x_max":460,"o":"m 65 997 l 458 885 l 432 792 l 163 868 l 158 471 l 308 482 l 315 386 l 157 374 l 154 1 l 57 3 l 60 365 l 7 361 l 0 458 l 61 463 l 65 997 z "},"G":{"ha":526,"x_min":-1,"x_max":446,"o":"m 250 999 q 321 969 288 996 q 368 913 346 949 q 388 877 379 896 q 400 847 397 858 l 404 836 l 313 806 q 286 861 303 835 q 258 894 272 883 q 243 901 250 901 q 201 875 224 900 q 153 785 175 844 q 99 486 107 661 q 97 432 97 460 q 128 193 97 289 q 169 108 144 136 q 213 86 189 86 q 278 133 249 86 q 325 274 308 183 q 343 417 339 338 l 231 368 l 193 457 l 443 565 l 443 492 q 421 256 444 375 q 361 83 400 147 q 213 -11 304 -11 q 97 44 146 -11 q 35 164 58 88 q 0 429 0 274 q 1 490 0 460 q 61 819 10 681 q 128 939 90 894 q 238 999 176 994 q 250 999 243 999 z "},"H":{"ha":546,"x_min":0,"x_max":464,"o":"m 97 992 l 114 501 l 350 514 l 367 974 l 464 971 l 429 1 l 332 6 l 346 417 l 117 404 l 131 6 l 33 1 l 0 989 l 97 992 z "},"I":{"ha":181,"x_min":0,"x_max":97,"o":"m 0 990 l 97 990 l 97 1 l 0 1 l 0 990 z "},"J":{"ha":485,"x_min":0,"x_max":403,"o":"m 306 990 l 403 989 l 385 -14 l 0 244 l 54 325 l 290 167 l 306 990 z "},"K":{"ha":531,"x_min":0,"x_max":449,"o":"m 361 993 l 447 949 l 124 297 l 422 71 l 363 -7 l 99 193 l 97 1 l 0 1 l 1 267 l 0 268 l 1 271 l 7 975 l 104 974 l 100 469 l 361 993 z "},"L":{"ha":467,"x_min":0,"x_max":385,"o":"m 17 992 l 114 990 l 99 117 l 367 165 l 383 69 l 0 1 l 17 992 z "},"M":{"ha":690,"x_min":0,"x_max":608,"o":"m 129 993 l 308 510 l 451 942 l 546 929 l 607 7 l 510 1 l 465 675 l 313 215 l 124 728 l 97 1 l 0 4 l 35 978 l 129 993 z "},"N":{"ha":579,"x_min":0,"x_max":497,"o":"m 94 992 l 363 254 l 399 953 l 496 949 l 446 11 l 351 -3 l 106 674 l 125 15 l 28 13 l 0 974 l 94 992 z "},"O":{"ha":536,"x_min":0,"x_max":454,"o":"m 231 1001 q 232 1001 232 1001 q 342 946 294 1001 q 404 826 379 903 q 454 494 451 688 q 454 479 454 488 q 408 163 454 292 q 340 42 382 85 q 224 -12 290 -12 q 221 -12 222 -12 q 100 43 151 -11 q 35 165 60 88 q 0 431 0 275 q 1 497 0 464 q 63 826 11 688 q 125 944 89 901 q 231 1001 172 1001 m 232 904 q 200 882 218 904 q 153 793 175 853 q 99 493 107 668 q 97 433 97 463 q 128 196 97 290 q 172 110 146 138 q 222 85 194 85 q 224 85 224 85 q 269 108 249 85 q 317 194 297 136 q 357 481 357 308 q 357 493 357 488 q 313 794 356 671 q 268 883 293 854 q 232 904 249 906 z "},"P":{"ha":469,"x_min":0,"x_max":388,"o":"m 0 992 l 61 975 q 221 901 142 956 q 339 784 292 854 q 386 621 386 714 q 225 306 386 454 q 97 211 167 253 l 97 1 l 0 1 l 0 992 m 97 858 l 97 328 q 160 378 131 353 q 289 621 289 497 q 167 821 289 739 q 97 858 135 842 z "},"Q":{"ha":536,"x_min":-1,"x_max":454,"o":"m 231 999 q 232 999 232 999 q 342 943 294 999 q 404 824 379 900 q 454 493 451 686 q 454 478 454 486 q 408 161 454 290 q 383 103 397 129 l 428 54 l 354 -11 l 324 25 q 224 -12 278 -12 q 221 -12 222 -12 q 100 43 151 -11 q 35 165 60 88 q 0 429 0 275 q 1 496 0 463 q 63 824 11 685 q 125 942 89 899 q 231 999 172 999 m 232 901 q 200 879 218 901 q 153 790 175 850 q 99 492 107 665 q 97 432 97 461 q 128 194 97 289 q 172 110 146 138 q 222 85 194 85 q 258 97 243 85 l 210 153 l 282 218 l 313 183 q 317 193 315 189 q 357 479 357 307 q 357 492 357 486 q 313 792 356 669 q 268 881 293 851 q 232 901 249 903 z "},"R":{"ha":469,"x_min":0,"x_max":388,"o":"m 0 993 l 61 976 q 221 901 142 956 q 339 783 292 854 q 386 621 386 713 q 225 306 386 454 q 139 238 185 269 l 385 78 l 332 -4 l 97 149 l 97 1 l 0 1 l 0 993 m 97 860 l 97 328 q 160 378 131 351 q 289 618 288 496 q 167 821 290 738 q 97 860 135 842 z "},"S":{"ha":574,"x_min":0,"x_max":492,"o":"m 356 992 l 429 929 l 139 582 l 490 306 l 82 -1 l 24 76 l 331 307 l 0 567 l 356 992 z "},"T":{"ha":543,"x_min":0,"x_max":461,"o":"m 457 992 l 460 894 l 290 890 l 283 1 l 186 1 l 193 888 l 3 883 l 0 981 l 457 992 z "},"U":{"ha":528,"x_min":0,"x_max":446,"o":"m 6 992 l 103 986 q 97 747 97 883 q 104 510 97 618 q 150 194 117 306 q 190 108 168 135 q 219 92 206 90 q 251 118 235 94 q 292 213 274 150 q 339 519 324 325 q 349 815 349 654 q 346 967 349 815 l 443 971 q 446 815 446 908 q 435 513 446 651 q 385 185 421 307 q 332 64 363 108 q 232 -4 290 3 q 218 -6 225 -6 q 117 46 158 -6 q 57 165 82 88 q 7 503 19 288 q 0 749 0 615 q 6 992 0 888 z "},"V":{"ha":586,"x_min":0,"x_max":504,"o":"m 408 992 l 504 971 l 289 -1 l 194 0 l 0 972 l 96 990 l 244 246 l 408 992 z "},"W":{"ha":724,"x_min":0,"x_max":642,"o":"m 544 992 l 642 985 l 564 26 l 472 11 l 317 358 l 171 1 l 78 15 l 0 944 l 97 953 l 158 226 l 313 607 l 483 225 l 544 992 z "},"X":{"ha":611,"x_min":0,"x_max":529,"o":"m 400 993 l 489 956 l 322 557 l 528 38 l 438 1 l 269 428 l 90 0 l 0 38 l 218 557 l 60 956 l 150 992 l 271 686 l 400 993 z "},"Y":{"ha":603,"x_min":0,"x_max":521,"o":"m 428 992 l 519 960 l 181 0 l 89 33 l 199 343 l 0 958 l 93 989 l 251 494 l 428 992 z "},"Z":{"ha":597,"x_min":0,"x_max":515,"o":"m 515 992 l 147 104 l 453 117 l 457 19 l 0 1 l 367 886 l 117 872 l 111 969 l 515 992 z "},"[":{"ha":322,"x_min":0,"x_max":240,"o":"m 0 992 l 240 986 l 238 889 l 97 892 l 97 101 l 233 107 l 238 10 l 0 0 l 0 992 z "},"]":{"ha":322,"x_min":0,"x_max":240,"o":"m 240 992 l 240 0 l 3 10 l 7 107 l 143 101 l 143 892 l 3 889 l 0 986 l 240 992 z "},"_":{"ha":588,"x_min":0,"x_max":506,"o":"m 0 99 l 506 99 l 506 1 l 0 1 l 0 99 z "},"a":{"ha":599,"x_min":0,"x_max":517,"o":"m 233 992 l 328 989 l 517 18 l 421 0 l 349 372 l 181 356 l 94 -3 l 0 21 l 233 992 m 275 751 l 204 456 l 331 468 l 275 751 z "},"b":{"ha":561,"x_min":0,"x_max":479,"o":"m 90 996 q 103 996 97 996 q 233 985 174 994 q 374 936 321 969 q 428 878 407 914 q 450 801 450 843 q 383 656 450 729 q 256 553 336 604 q 164 500 214 526 l 478 328 l 0 -14 l 0 479 l 0 532 l 0 946 l 0 992 l 46 994 q 90 996 63 996 m 104 899 q 101 899 103 899 q 97 899 99 899 l 97 575 q 204 635 156 604 q 313 722 274 679 q 353 801 353 767 q 346 831 353 819 q 321 854 339 842 q 217 889 285 878 q 104 899 167 897 m 97 426 l 97 174 l 296 317 l 97 426 z "},"c":{"ha":489,"x_min":-1,"x_max":407,"o":"m 201 1000 q 258 985 228 999 q 328 936 292 968 q 365 901 347 919 q 390 872 382 883 l 400 861 l 324 801 q 264 863 297 833 q 215 897 238 888 q 194 903 200 906 q 167 871 183 900 q 132 771 147 835 q 97 469 100 643 q 97 444 97 457 q 124 181 97 286 q 156 99 138 125 q 171 83 165 83 l 174 86 q 199 103 189 93 q 257 164 224 125 q 290 208 274 185 q 315 246 307 232 l 325 258 l 407 207 q 332 103 374 156 q 263 29 294 57 q 172 -14 214 -14 q 171 -14 171 -14 q 75 44 114 -14 q 29 157 47 85 q 0 443 0 274 q 0 471 0 457 q 38 794 3 656 q 82 917 56 869 q 163 996 115 979 q 201 1000 182 1001 z "},"d":{"ha":490,"x_min":0,"x_max":408,"o":"m 0 1001 l 60 989 q 229 908 144 971 q 353 767 303 854 q 408 563 404 681 q 408 544 408 553 q 391 410 408 476 q 345 294 374 344 q 283 199 317 244 q 216 123 250 154 q 153 69 182 92 q 108 35 125 47 q 90 24 90 24 l 19 -18 l 0 1001 m 100 872 l 113 163 q 178 226 147 192 q 241 310 208 261 q 292 419 274 358 q 311 546 311 481 q 311 558 311 551 q 172 831 306 732 q 100 872 139 854 z "},"e":{"ha":438,"x_min":0,"x_max":356,"o":"m 0 992 l 356 957 l 346 860 l 99 885 l 104 461 l 268 464 l 269 367 l 106 364 l 110 119 l 325 161 l 343 65 l 14 1 l 0 992 z "},"f":{"ha":542,"x_min":0,"x_max":460,"o":"m 65 997 l 458 885 l 432 792 l 163 868 l 158 471 l 308 482 l 315 386 l 157 374 l 154 1 l 57 3 l 60 365 l 7 361 l 0 458 l 61 463 l 65 997 z "},"g":{"ha":526,"x_min":-1,"x_max":446,"o":"m 250 999 q 321 969 288 996 q 368 913 346 949 q 388 877 379 896 q 400 847 397 858 l 404 836 l 313 806 q 286 861 303 835 q 258 894 272 883 q 243 901 250 901 q 201 875 224 900 q 153 785 175 844 q 99 486 107 661 q 97 432 97 460 q 128 193 97 289 q 169 108 144 136 q 213 86 189 86 q 278 133 249 86 q 325 274 308 183 q 343 417 339 338 l 231 368 l 193 457 l 443 565 l 443 492 q 421 256 444 375 q 361 83 400 147 q 213 -11 304 -11 q 97 44 146 -11 q 35 164 58 88 q 0 429 0 274 q 1 490 0 460 q 61 819 10 681 q 128 939 90 894 q 238 999 176 994 q 250 999 243 999 z "},"h":{"ha":546,"x_min":0,"x_max":464,"o":"m 97 992 l 114 501 l 350 514 l 367 974 l 464 971 l 429 1 l 332 6 l 346 417 l 117 404 l 131 6 l 33 1 l 0 989 l 97 992 z "},"i":{"ha":181,"x_min":0,"x_max":97,"o":"m 0 990 l 97 990 l 97 1 l 0 1 l 0 990 z "},"j":{"ha":485,"x_min":0,"x_max":403,"o":"m 306 990 l 403 989 l 385 -14 l 0 244 l 54 325 l 290 167 l 306 990 z "},"k":{"ha":531,"x_min":0,"x_max":449,"o":"m 361 993 l 447 949 l 124 297 l 422 71 l 363 -7 l 99 193 l 97 1 l 0 1 l 1 267 l 0 268 l 1 271 l 7 975 l 104 974 l 100 469 l 361 993 z "},"l":{"ha":467,"x_min":0,"x_max":385,"o":"m 17 992 l 114 990 l 99 117 l 367 165 l 383 69 l 0 1 l 17 992 z "},"m":{"ha":690,"x_min":0,"x_max":608,"o":"m 129 993 l 308 510 l 451 942 l 546 929 l 607 7 l 510 1 l 465 675 l 313 215 l 124 728 l 97 1 l 0 4 l 35 978 l 129 993 z "},"n":{"ha":579,"x_min":0,"x_max":497,"o":"m 94 992 l 363 254 l 399 953 l 496 949 l 446 11 l 351 -3 l 106 674 l 125 15 l 28 13 l 0 974 l 94 992 z "},"o":{"ha":536,"x_min":0,"x_max":454,"o":"m 231 1001 q 232 1001 232 1001 q 342 946 294 1001 q 404 826 379 903 q 454 494 451 688 q 454 479 454 488 q 408 163 454 292 q 340 42 382 85 q 224 -12 290 -12 q 221 -12 222 -12 q 100 43 151 -11 q 35 165 60 88 q 0 431 0 275 q 1 497 0 464 q 63 826 11 688 q 125 944 89 901 q 231 1001 172 1001 m 232 904 q 200 882 218 904 q 153 793 175 853 q 99 493 107 668 q 97 433 97 463 q 128 196 97 290 q 172 110 146 138 q 222 85 194 85 q 224 85 224 85 q 269 108 249 85 q 317 194 297 136 q 357 481 357 308 q 357 493 357 488 q 313 794 356 671 q 268 883 293 854 q 232 904 249 906 z "},"p":{"ha":469,"x_min":0,"x_max":388,"o":"m 0 992 l 61 975 q 221 901 142 956 q 339 784 292 854 q 386 621 386 714 q 225 306 386 454 q 97 211 167 253 l 97 1 l 0 1 l 0 992 m 97 858 l 97 328 q 160 378 131 353 q 289 621 289 497 q 167 821 289 739 q 97 858 135 842 z "},"q":{"ha":536,"x_min":-1,"x_max":454,"o":"m 231 999 q 232 999 232 999 q 342 943 294 999 q 404 824 379 900 q 454 493 451 686 q 454 478 454 486 q 408 161 454 290 q 383 103 397 129 l 428 54 l 354 -11 l 324 25 q 224 -12 278 -12 q 221 -12 222 -12 q 100 43 151 -11 q 35 165 60 88 q 0 429 0 275 q 1 496 0 463 q 63 824 11 685 q 125 942 89 899 q 231 999 172 999 m 232 901 q 200 879 218 901 q 153 790 175 850 q 99 492 107 665 q 97 432 97 461 q 128 194 97 289 q 172 110 146 138 q 222 85 194 85 q 258 97 243 85 l 210 153 l 282 218 l 313 183 q 317 193 315 189 q 357 479 357 307 q 357 492 357 486 q 313 792 356 669 q 268 881 293 851 q 232 901 249 903 z "},"r":{"ha":469,"x_min":0,"x_max":388,"o":"m 0 993 l 61 976 q 221 901 142 956 q 339 783 292 854 q 386 621 386 713 q 225 306 386 454 q 139 238 185 269 l 385 78 l 332 -4 l 97 149 l 97 1 l 0 1 l 0 993 m 97 860 l 97 328 q 160 378 131 351 q 289 618 288 496 q 167 821 290 738 q 97 860 135 842 z "},"s":{"ha":574,"x_min":0,"x_max":492,"o":"m 356 992 l 429 929 l 139 582 l 490 306 l 82 -1 l 24 76 l 331 307 l 0 567 l 356 992 z "},"t":{"ha":543,"x_min":0,"x_max":461,"o":"m 457 992 l 460 894 l 290 890 l 283 1 l 186 1 l 193 888 l 3 883 l 0 981 l 457 992 z "},"u":{"ha":528,"x_min":0,"x_max":446,"o":"m 6 992 l 103 986 q 97 747 97 883 q 104 510 97 618 q 150 194 117 306 q 190 108 168 135 q 219 92 206 90 q 251 118 235 94 q 292 213 274 150 q 339 519 324 325 q 349 815 349 654 q 346 967 349 815 l 443 971 q 446 815 446 908 q 435 513 446 651 q 385 185 421 307 q 332 64 363 108 q 232 -4 290 3 q 218 -6 225 -6 q 117 46 158 -6 q 57 165 82 88 q 7 503 19 288 q 0 749 0 615 q 6 992 0 888 z "},"v":{"ha":586,"x_min":0,"x_max":504,"o":"m 408 992 l 504 971 l 289 -1 l 194 0 l 0 972 l 96 990 l 244 246 l 408 992 z "},"w":{"ha":724,"x_min":0,"x_max":642,"o":"m 544 992 l 642 985 l 564 26 l 472 11 l 317 358 l 171 1 l 78 15 l 0 944 l 97 953 l 158 226 l 313 607 l 483 225 l 544 992 z "},"x":{"ha":611,"x_min":0,"x_max":529,"o":"m 400 993 l 489 956 l 322 557 l 528 38 l 438 1 l 269 428 l 90 0 l 0 38 l 218 557 l 60 956 l 150 992 l 271 686 l 400 993 z "},"y":{"ha":603,"x_min":0,"x_max":521,"o":"m 428 992 l 519 960 l 181 0 l 89 33 l 199 343 l 0 958 l 93 989 l 251 494 l 428 992 z "},"z":{"ha":597,"x_min":0,"x_max":515,"o":"m 515 992 l 147 104 l 453 117 l 457 19 l 0 1 l 367 886 l 117 872 l 111 969 l 515 992 z "},"Š":{"ha":574,"x_min":0,"x_max":492,"o":"m 313 1325 l 379 1275 l 272 1133 l 157 1269 l 221 1322 l 268 1267 l 313 1325 m 356 992 l 429 929 l 139 582 l 490 306 l 82 -1 l 24 76 l 331 307 l 0 567 l 356 992 z "},"š":{"ha":574,"x_min":0,"x_max":492,"o":"m 313 1325 l 379 1275 l 272 1133 l 157 1269 l 221 1322 l 268 1267 l 313 1325 m 356 992 l 429 929 l 139 582 l 490 306 l 82 -1 l 24 76 l 331 307 l 0 567 l 356 992 z "},"°":{"ha":276,"x_min":-1,"x_max":194,"o":"m 94 938 q 97 938 96 938 q 165 907 139 938 q 193 843 190 881 q 193 836 193 840 q 174 775 193 801 q 101 740 147 742 q 96 740 99 740 q 24 769 51 740 q 0 835 0 796 q 24 903 0 874 q 94 938 51 936 m 117 862 q 113 867 117 862 q 97 872 110 872 q 78 862 85 872 q 71 836 71 851 q 77 812 71 822 q 96 801 83 801 q 97 801 96 801 q 117 812 110 801 q 124 837 124 822 q 117 862 124 851 z "},"Ž":{"ha":597,"x_min":0,"x_max":515,"o":"m 340 1301 l 407 1251 l 300 1110 l 185 1246 l 249 1299 l 296 1243 l 340 1301 m 515 992 l 147 104 l 453 117 l 457 19 l 0 1 l 367 886 l 117 872 l 111 969 l 515 992 z "},"ž":{"ha":597,"x_min":0,"x_max":515,"o":"m 340 1301 l 407 1251 l 300 1110 l 185 1246 l 249 1299 l 296 1243 l 340 1301 m 515 992 l 147 104 l 453 117 l 457 19 l 0 1 l 367 886 l 117 872 l 111 969 l 515 992 z "},"Œ":{"ha":536,"x_min":0,"x_max":703,"o":"m 232 904 q 200 882 218 904 q 153 793 175 853 q 99 493 107 668 q 97 433 97 463 q 128 196 97 290 q 172 110 146 138 q 222 85 194 85 q 224 85 224 85 q 269 108 249 85 q 317 194 297 136 q 356 419 349 285 l 353 578 q 313 794 343 706 q 268 883 293 854 q 232 904 249 906 m 231 1001 q 232 1001 232 1001 q 342 946 294 1001 q 349 938 344 942 l 347 992 l 703 957 l 693 860 l 446 885 l 450 585 q 454 494 454 540 q 454 461 454 478 l 615 464 l 617 367 l 453 364 l 457 119 l 672 161 l 690 65 l 361 1 l 360 65 q 340 42 351 53 q 224 -12 290 -12 q 221 -12 222 -12 q 100 43 151 -11 q 35 165 60 88 q 0 431 0 275 q 1 497 0 464 q 63 826 11 688 q 125 944 89 901 q 231 1001 172 1001 z "},"œ":{"ha":536,"x_min":0,"x_max":703,"o":"m 232 904 q 200 882 218 904 q 153 793 175 853 q 99 493 107 668 q 97 433 97 463 q 128 196 97 290 q 172 110 146 138 q 222 85 194 85 q 224 85 224 85 q 269 108 249 85 q 317 194 297 136 q 356 419 349 285 l 353 578 q 313 794 343 706 q 268 883 293 854 q 232 904 249 906 m 231 1001 q 232 1001 232 1001 q 342 946 294 1001 q 349 938 344 942 l 347 992 l 703 957 l 693 860 l 446 885 l 450 585 q 454 494 454 540 q 454 461 454 478 l 615 464 l 617 367 l 453 364 l 457 119 l 672 161 l 690 65 l 361 1 l 360 65 q 340 42 351 53 q 224 -12 290 -12 q 221 -12 222 -12 q 100 43 151 -11 q 35 165 60 88 q 0 431 0 275 q 1 497 0 464 q 63 826 11 688 q 125 944 89 901 q 231 1001 172 1001 z "},"Ÿ":{"ha":603,"x_min":0,"x_max":521,"o":"m 135 1182 l 218 1182 l 217 1100 l 133 1101 l 135 1182 m 296 1182 l 379 1182 l 378 1100 l 294 1101 l 296 1182 m 428 992 l 519 960 l 181 0 l 89 33 l 199 343 l 0 958 l 93 989 l 251 494 l 428 992 z "},"À":{"ha":599,"x_min":0,"x_max":517,"o":"m 246 1264 l 317 1129 l 243 1090 l 172 1225 l 246 1264 m 233 992 l 328 989 l 517 18 l 421 0 l 349 372 l 181 356 l 94 -3 l 0 21 l 233 992 m 275 751 l 204 456 l 331 468 l 275 751 z "},"Á":{"ha":599,"x_min":0,"x_max":517,"o":"m 307 1268 l 381 1229 l 310 1094 l 236 1133 l 307 1268 m 233 992 l 328 989 l 517 18 l 421 0 l 349 372 l 181 356 l 94 -3 l 0 21 l 233 992 m 275 751 l 204 456 l 331 468 l 275 751 z "},"Â":{"ha":599,"x_min":0,"x_max":517,"o":"m 285 1281 l 392 1140 l 325 1089 l 281 1147 l 233 1092 l 169 1146 l 285 1281 m 233 992 l 328 989 l 517 18 l 421 0 l 349 372 l 181 356 l 94 -3 l 0 21 l 233 992 m 275 751 l 204 456 l 331 468 l 275 751 z "},"Ã":{"ha":599,"x_min":0,"x_max":517,"o":"m 222 1246 q 240 1243 232 1246 q 256 1236 249 1240 q 268 1230 264 1232 q 280 1221 272 1228 q 289 1214 288 1214 q 317 1196 304 1203 q 325 1208 319 1200 l 347 1243 l 418 1200 l 396 1164 q 358 1124 379 1136 q 317 1113 339 1113 q 306 1113 311 1113 q 239 1147 279 1117 q 218 1160 231 1153 q 213 1151 215 1156 l 194 1114 l 119 1150 l 138 1188 q 171 1232 153 1217 q 217 1246 192 1246 q 222 1246 219 1246 m 233 992 l 328 989 l 517 18 l 421 0 l 349 372 l 181 356 l 94 -3 l 0 21 l 233 992 m 275 751 l 204 456 l 331 468 l 275 751 z "},"Ä":{"ha":599,"x_min":0,"x_max":517,"o":"m 157 1203 l 240 1203 l 239 1121 l 156 1122 l 157 1203 m 318 1203 l 401 1203 l 400 1121 l 317 1122 l 318 1203 m 233 992 l 328 989 l 517 18 l 421 0 l 349 372 l 181 356 l 94 -3 l 0 21 l 233 992 m 275 751 l 204 456 l 331 468 l 275 751 z "},"Å":{"ha":599,"x_min":0,"x_max":517,"o":"m 278 1289 q 281 1289 279 1289 q 349 1258 322 1289 q 376 1194 374 1232 q 376 1188 376 1192 q 357 1126 376 1153 q 285 1092 331 1093 q 279 1092 282 1092 q 207 1121 235 1092 q 183 1186 183 1147 q 207 1254 183 1225 q 278 1289 235 1288 m 300 1213 q 297 1218 300 1213 q 281 1224 293 1224 q 261 1213 268 1224 q 254 1188 254 1203 q 260 1163 254 1174 q 279 1153 267 1153 q 281 1153 279 1153 q 300 1163 293 1153 q 307 1188 307 1174 q 300 1213 307 1203 m 233 992 l 328 989 l 517 18 l 421 0 l 349 372 l 181 356 l 94 -3 l 0 21 l 233 992 m 275 751 l 204 456 l 331 468 l 275 751 z "},"Æ":{"ha":599,"x_min":0,"x_max":765,"o":"m 275 751 l 204 456 l 331 468 l 275 751 m 233 992 l 328 989 l 417 536 l 410 992 l 765 957 l 756 860 l 508 885 l 514 461 l 678 464 l 679 367 l 515 364 l 519 119 l 733 161 l 753 65 l 517 19 l 517 18 l 421 0 l 349 372 l 181 356 l 94 -3 l 0 21 l 233 992 z "},"Ç":{"ha":489,"x_min":0,"x_max":407,"o":"m 126 29 l 210 29 l 210 -28 q 219 -31 217 -29 q 268 -60 249 -37 q 294 -126 292 -86 q 296 -150 296 -139 q 276 -244 296 -204 q 242 -287 265 -269 q 192 -304 219 -304 q 186 -304 189 -304 q 126 -275 150 -301 q 106 -228 111 -256 q 101 -193 101 -211 q 103 -174 101 -174 l 185 -185 q 186 -211 183 -199 q 190 -221 188 -218 q 193 -221 190 -221 q 193 -222 193 -221 q 201 -210 196 -222 q 213 -149 213 -186 q 211 -132 213 -140 q 207 -115 211 -119 q 199 -111 204 -112 l 178 -110 l 126 -122 l 126 29 m 201 1000 q 258 985 228 999 q 328 936 292 968 q 365 901 347 919 q 390 872 382 883 l 400 861 l 324 801 q 264 863 297 833 q 215 897 238 888 q 194 903 200 906 q 167 871 183 900 q 132 771 147 835 q 97 469 100 643 q 97 444 97 457 q 124 181 97 286 q 156 99 138 125 q 171 83 165 83 l 174 86 q 199 103 189 93 q 257 164 224 125 q 290 208 274 185 q 315 246 307 232 l 325 258 l 407 207 q 332 103 374 156 q 263 29 294 57 q 172 -14 214 -14 q 171 -14 171 -14 q 75 44 114 -14 q 29 157 47 85 q 0 443 0 274 q 0 471 0 457 q 38 794 3 656 q 82 917 56 869 q 163 996 115 979 q 201 1000 182 1001 z "},"È":{"ha":438,"x_min":0,"x_max":356,"o":"m 136 1286 l 207 1151 l 133 1113 l 63 1247 l 136 1286 m 0 992 l 356 957 l 346 860 l 99 885 l 104 461 l 268 464 l 269 367 l 106 364 l 110 119 l 325 161 l 343 65 l 14 1 l 0 992 z "},"É":{"ha":438,"x_min":0,"x_max":356,"o":"m 197 1290 l 271 1251 l 200 1117 l 126 1156 l 197 1290 m 0 992 l 356 957 l 346 860 l 99 885 l 104 461 l 268 464 l 269 367 l 106 364 l 110 119 l 325 161 l 343 65 l 14 1 l 0 992 z "},"Ê":{"ha":438,"x_min":0,"x_max":356,"o":"m 175 1303 l 282 1163 l 215 1111 l 171 1169 l 124 1114 l 60 1168 l 175 1303 m 0 992 l 356 957 l 346 860 l 99 885 l 104 461 l 268 464 l 269 367 l 106 364 l 110 119 l 325 161 l 343 65 l 14 1 l 0 992 z "},"Ë":{"ha":438,"x_min":0,"x_max":356,"o":"m 47 1225 l 131 1225 l 129 1143 l 46 1144 l 47 1225 m 208 1225 l 292 1225 l 290 1143 l 207 1144 l 208 1225 m 0 992 l 356 957 l 346 860 l 99 885 l 104 461 l 268 464 l 269 367 l 106 364 l 110 119 l 325 161 l 343 65 l 14 1 l 0 992 z "},"Ì":{"ha":181,"x_min":-65,"x_max":97,"o":"m 8 1240 l 79 1106 l 6 1067 l -65 1201 l 8 1240 m 0 990 l 97 990 l 97 1 l 0 1 l 0 990 z "},"Í":{"ha":181,"x_min":-1,"x_max":144,"o":"m 69 1244 l 143 1206 l 72 1071 l -1 1110 l 69 1244 m 0 990 l 97 990 l 97 1 l 0 1 l 0 990 z "},"Î":{"ha":181,"x_min":-68,"x_max":154,"o":"m 47 1257 l 154 1117 l 88 1065 l 43 1124 l -4 1068 l -68 1122 l 47 1257 m 0 990 l 97 990 l 97 1 l 0 1 l 0 990 z "},"Ï":{"ha":181,"x_min":-82,"x_max":165,"o":"m -81 1179 l 3 1179 l 1 1097 l -82 1099 l -81 1179 m 81 1179 l 164 1179 l 163 1097 l 79 1099 l 81 1179 m 0 990 l 97 990 l 97 1 l 0 1 l 0 990 z "},"Ñ":{"ha":579,"x_min":0,"x_max":497,"o":"m 199 1253 q 217 1250 208 1253 q 233 1243 225 1247 q 244 1237 240 1239 q 256 1228 249 1235 q 265 1221 264 1221 q 293 1203 281 1210 q 301 1215 296 1207 l 324 1250 l 394 1207 l 372 1171 q 335 1131 356 1143 q 293 1119 315 1119 q 282 1119 288 1119 q 215 1154 256 1124 q 194 1167 207 1160 q 189 1158 192 1163 l 171 1121 l 96 1157 l 114 1194 q 147 1239 129 1224 q 193 1253 168 1253 q 199 1253 196 1253 m 94 992 l 363 254 l 399 953 l 496 949 l 446 11 l 351 -3 l 106 674 l 125 15 l 28 13 l 0 974 l 94 992 z "},"Ò":{"ha":536,"x_min":0,"x_max":454,"o":"m 196 1263 l 267 1128 l 193 1089 l 122 1224 l 196 1263 m 231 1001 q 232 1001 232 1001 q 342 946 294 1001 q 404 826 379 903 q 454 494 451 688 q 454 479 454 488 q 408 163 454 292 q 340 42 382 85 q 224 -12 290 -12 q 221 -12 222 -12 q 100 43 151 -11 q 35 165 60 88 q 0 431 0 275 q 1 497 0 464 q 63 826 11 688 q 125 944 89 901 q 231 1001 172 1001 m 232 904 q 200 882 218 904 q 153 793 175 853 q 99 493 107 668 q 97 433 97 463 q 128 196 97 290 q 172 110 146 138 q 222 85 194 85 q 224 85 224 85 q 269 108 249 85 q 317 194 297 136 q 357 481 357 308 q 357 493 357 488 q 313 794 356 671 q 268 883 293 854 q 232 904 249 906 z "},"Ó":{"ha":536,"x_min":0,"x_max":454,"o":"m 257 1267 l 331 1228 l 260 1093 l 186 1132 l 257 1267 m 231 1001 q 232 1001 232 1001 q 342 946 294 1001 q 404 826 379 903 q 454 494 451 688 q 454 479 454 488 q 408 163 454 292 q 340 42 382 85 q 224 -12 290 -12 q 221 -12 222 -12 q 100 43 151 -11 q 35 165 60 88 q 0 431 0 275 q 1 497 0 464 q 63 826 11 688 q 125 944 89 901 q 231 1001 172 1001 m 232 904 q 200 882 218 904 q 153 793 175 853 q 99 493 107 668 q 97 433 97 463 q 128 196 97 290 q 172 110 146 138 q 222 85 194 85 q 224 85 224 85 q 269 108 249 85 q 317 194 297 136 q 357 481 357 308 q 357 493 357 488 q 313 794 356 671 q 268 883 293 854 q 232 904 249 906 z "},"Ô":{"ha":536,"x_min":0,"x_max":454,"o":"m 235 1279 l 342 1139 l 275 1088 l 231 1146 l 183 1090 l 119 1144 l 235 1279 m 231 1001 q 232 1001 232 1001 q 342 946 294 1001 q 404 826 379 903 q 454 494 451 688 q 454 479 454 488 q 408 163 454 292 q 340 42 382 85 q 224 -12 290 -12 q 221 -12 222 -12 q 100 43 151 -11 q 35 165 60 88 q 0 431 0 275 q 1 497 0 464 q 63 826 11 688 q 125 944 89 901 q 231 1001 172 1001 m 232 904 q 200 882 218 904 q 153 793 175 853 q 99 493 107 668 q 97 433 97 463 q 128 196 97 290 q 172 110 146 138 q 222 85 194 85 q 224 85 224 85 q 269 108 249 85 q 317 194 297 136 q 357 481 357 308 q 357 493 357 488 q 313 794 356 671 q 268 883 293 854 q 232 904 249 906 z "},"Õ":{"ha":536,"x_min":0,"x_max":454,"o":"m 172 1244 q 190 1242 182 1244 q 206 1235 199 1239 q 218 1228 214 1231 q 230 1219 222 1226 q 239 1213 238 1213 q 267 1194 254 1201 q 275 1207 269 1199 l 297 1242 l 368 1199 l 346 1163 q 308 1122 329 1135 q 267 1111 289 1111 q 256 1111 261 1111 q 189 1146 229 1115 q 168 1158 181 1151 q 163 1150 165 1154 l 144 1113 l 69 1149 l 88 1186 q 121 1231 103 1215 q 167 1244 142 1244 q 172 1244 169 1244 m 231 1001 q 232 1001 232 1001 q 342 946 294 1001 q 404 826 379 903 q 454 494 451 688 q 454 479 454 488 q 408 163 454 292 q 340 42 382 85 q 224 -12 290 -12 q 221 -12 222 -12 q 100 43 151 -11 q 35 165 60 88 q 0 431 0 275 q 1 497 0 464 q 63 826 11 688 q 125 944 89 901 q 231 1001 172 1001 m 232 904 q 200 882 218 904 q 153 793 175 853 q 99 493 107 668 q 97 433 97 463 q 128 196 97 290 q 172 110 146 138 q 222 85 194 85 q 224 85 224 85 q 269 108 249 85 q 317 194 297 136 q 357 481 357 308 q 357 493 357 488 q 313 794 356 671 q 268 883 293 854 q 232 904 249 906 z "},"Ö":{"ha":536,"x_min":0,"x_max":454,"o":"m 107 1201 l 190 1201 l 189 1119 l 106 1121 l 107 1201 m 268 1201 l 351 1201 l 350 1119 l 267 1121 l 268 1201 m 231 1001 q 232 1001 232 1001 q 342 946 294 1001 q 404 826 379 903 q 454 494 451 688 q 454 479 454 488 q 408 163 454 292 q 340 42 382 85 q 224 -12 290 -12 q 221 -12 222 -12 q 100 43 151 -11 q 35 165 60 88 q 0 431 0 275 q 1 497 0 464 q 63 826 11 688 q 125 944 89 901 q 231 1001 172 1001 m 232 904 q 200 882 218 904 q 153 793 175 853 q 99 493 107 668 q 97 433 97 463 q 128 196 97 290 q 172 110 146 138 q 222 85 194 85 q 224 85 224 85 q 269 108 249 85 q 317 194 297 136 q 357 481 357 308 q 357 493 357 488 q 313 794 356 671 q 268 883 293 854 q 232 904 249 906 z "},"Ø":{"ha":576,"x_min":0,"x_max":494,"o":"m 260 904 q 228 882 246 904 q 181 793 203 853 q 126 493 135 668 q 125 433 125 463 q 128 350 125 390 l 335 813 q 296 883 317 858 q 260 904 276 906 m 258 1001 q 260 1001 260 1001 q 369 946 322 1001 q 385 926 378 936 l 404 971 l 493 932 l 439 808 q 482 494 481 674 q 482 479 482 488 q 436 163 482 292 q 368 42 410 85 q 251 -12 318 -12 q 249 -12 250 -12 q 129 43 179 -11 q 110 68 118 54 l 89 22 l 0 61 l 56 188 q 28 431 28 292 q 29 497 28 464 q 90 826 39 688 q 153 944 117 901 q 258 1001 200 1001 m 372 658 l 160 182 q 200 110 178 135 q 250 85 222 85 q 251 85 251 85 q 297 108 276 85 q 344 194 325 136 q 385 481 385 308 q 385 493 385 488 q 372 658 383 578 z "},"Ù":{"ha":528,"x_min":0,"x_max":446,"o":"m 189 1261 l 260 1126 l 186 1088 l 115 1222 l 189 1261 m 6 992 l 103 986 q 97 747 97 883 q 104 510 97 618 q 150 194 117 306 q 190 108 168 135 q 219 92 206 90 q 251 118 235 94 q 292 213 274 150 q 339 519 324 325 q 349 815 349 654 q 346 967 349 815 l 443 971 q 446 815 446 908 q 435 513 446 651 q 385 185 421 307 q 332 64 363 108 q 232 -4 290 3 q 218 -6 225 -6 q 117 46 158 -6 q 57 165 82 88 q 7 503 19 288 q 0 749 0 615 q 6 992 0 888 z "},"Ú":{"ha":528,"x_min":0,"x_max":446,"o":"m 250 1265 l 324 1226 l 253 1092 l 179 1131 l 250 1265 m 6 992 l 103 986 q 97 747 97 883 q 104 510 97 618 q 150 194 117 306 q 190 108 168 135 q 219 92 206 90 q 251 118 235 94 q 292 213 274 150 q 339 519 324 325 q 349 815 349 654 q 346 967 349 815 l 443 971 q 446 815 446 908 q 435 513 446 651 q 385 185 421 307 q 332 64 363 108 q 232 -4 290 3 q 218 -6 225 -6 q 117 46 158 -6 q 57 165 82 88 q 7 503 19 288 q 0 749 0 615 q 6 992 0 888 z "},"Û":{"ha":528,"x_min":0,"x_max":446,"o":"m 228 1278 l 335 1138 l 268 1086 l 224 1144 l 176 1089 l 113 1143 l 228 1278 m 6 992 l 103 986 q 97 747 97 883 q 104 510 97 618 q 150 194 117 306 q 190 108 168 135 q 219 92 206 90 q 251 118 235 94 q 292 213 274 150 q 339 519 324 325 q 349 815 349 654 q 346 967 349 815 l 443 971 q 446 815 446 908 q 435 513 446 651 q 385 185 421 307 q 332 64 363 108 q 232 -4 290 3 q 218 -6 225 -6 q 117 46 158 -6 q 57 165 82 88 q 7 503 19 288 q 0 749 0 615 q 6 992 0 888 z "},"Ü":{"ha":528,"x_min":0,"x_max":446,"o":"m 100 1200 l 183 1200 l 182 1118 l 99 1119 l 100 1200 m 261 1200 l 344 1200 l 343 1118 l 260 1119 l 261 1200 m 6 992 l 103 986 q 97 747 97 883 q 104 510 97 618 q 150 194 117 306 q 190 108 168 135 q 219 92 206 90 q 251 118 235 94 q 292 213 274 150 q 339 519 324 325 q 349 815 349 654 q 346 967 349 815 l 443 971 q 446 815 446 908 q 435 513 446 651 q 385 185 421 307 q 332 64 363 108 q 232 -4 290 3 q 218 -6 225 -6 q 117 46 158 -6 q 57 165 82 88 q 7 503 19 288 q 0 749 0 615 q 6 992 0 888 z "},"Ý":{"ha":603,"x_min":0,"x_max":521,"o":"m 285 1247 l 358 1208 l 288 1074 l 214 1113 l 285 1247 m 428 992 l 519 960 l 181 0 l 89 33 l 199 343 l 0 958 l 93 989 l 251 494 l 428 992 z "},"à":{"ha":599,"x_min":0,"x_max":517,"o":"m 246 1264 l 317 1129 l 243 1090 l 172 1225 l 246 1264 m 233 992 l 328 989 l 517 18 l 421 0 l 349 372 l 181 356 l 94 -3 l 0 21 l 233 992 m 275 751 l 204 456 l 331 468 l 275 751 z "},"á":{"ha":599,"x_min":0,"x_max":517,"o":"m 307 1268 l 381 1229 l 310 1094 l 236 1133 l 307 1268 m 233 992 l 328 989 l 517 18 l 421 0 l 349 372 l 181 356 l 94 -3 l 0 21 l 233 992 m 275 751 l 204 456 l 331 468 l 275 751 z "},"â":{"ha":599,"x_min":0,"x_max":517,"o":"m 285 1281 l 392 1140 l 325 1089 l 281 1147 l 233 1092 l 169 1146 l 285 1281 m 233 992 l 328 989 l 517 18 l 421 0 l 349 372 l 181 356 l 94 -3 l 0 21 l 233 992 m 275 751 l 204 456 l 331 468 l 275 751 z "},"ã":{"ha":599,"x_min":0,"x_max":517,"o":"m 222 1246 q 240 1243 232 1246 q 256 1236 249 1240 q 268 1230 264 1232 q 280 1221 272 1228 q 289 1214 288 1214 q 317 1196 304 1203 q 325 1208 319 1200 l 347 1243 l 418 1200 l 396 1164 q 358 1124 379 1136 q 317 1113 339 1113 q 306 1113 311 1113 q 239 1147 279 1117 q 218 1160 231 1153 q 213 1151 215 1156 l 194 1114 l 119 1150 l 138 1188 q 171 1232 153 1217 q 217 1246 192 1246 q 222 1246 219 1246 m 233 992 l 328 989 l 517 18 l 421 0 l 349 372 l 181 356 l 94 -3 l 0 21 l 233 992 m 275 751 l 204 456 l 331 468 l 275 751 z "},"ä":{"ha":599,"x_min":0,"x_max":517,"o":"m 157 1203 l 240 1203 l 239 1121 l 156 1122 l 157 1203 m 318 1203 l 401 1203 l 400 1121 l 317 1122 l 318 1203 m 233 992 l 328 989 l 517 18 l 421 0 l 349 372 l 181 356 l 94 -3 l 0 21 l 233 992 m 275 751 l 204 456 l 331 468 l 275 751 z "},"å":{"ha":599,"x_min":0,"x_max":517,"o":"m 278 1289 q 281 1289 279 1289 q 349 1258 322 1289 q 376 1194 374 1232 q 376 1188 376 1192 q 357 1126 376 1153 q 285 1092 331 1093 q 279 1092 282 1092 q 207 1121 235 1092 q 183 1186 183 1147 q 207 1254 183 1225 q 278 1289 235 1288 m 300 1213 q 297 1218 300 1213 q 281 1224 293 1224 q 261 1213 268 1224 q 254 1188 254 1203 q 260 1163 254 1174 q 279 1153 267 1153 q 281 1153 279 1153 q 300 1163 293 1153 q 307 1188 307 1174 q 300 1213 307 1203 m 233 992 l 328 989 l 517 18 l 421 0 l 349 372 l 181 356 l 94 -3 l 0 21 l 233 992 m 275 751 l 204 456 l 331 468 l 275 751 z "},"æ":{"ha":599,"x_min":0,"x_max":765,"o":"m 275 751 l 204 456 l 331 468 l 275 751 m 233 992 l 328 989 l 417 536 l 410 992 l 765 957 l 756 860 l 508 885 l 514 461 l 678 464 l 679 367 l 515 364 l 519 119 l 733 161 l 753 65 l 517 19 l 517 18 l 421 0 l 349 372 l 181 356 l 94 -3 l 0 21 l 233 992 z "},"ç":{"ha":489,"x_min":0,"x_max":407,"o":"m 126 29 l 210 29 l 210 -28 q 219 -31 217 -29 q 268 -60 249 -37 q 294 -126 292 -86 q 296 -150 296 -139 q 276 -244 296 -204 q 242 -287 265 -269 q 192 -304 219 -304 q 186 -304 189 -304 q 126 -275 150 -301 q 106 -228 111 -256 q 101 -193 101 -211 q 103 -174 101 -174 l 185 -185 q 186 -211 183 -199 q 190 -221 188 -218 q 193 -221 190 -221 q 193 -222 193 -221 q 201 -210 196 -222 q 213 -149 213 -186 q 211 -132 213 -140 q 207 -115 211 -119 q 199 -111 204 -112 l 178 -110 l 126 -122 l 126 29 m 201 1000 q 258 985 228 999 q 328 936 292 968 q 365 901 347 919 q 390 872 382 883 l 400 861 l 324 801 q 264 863 297 833 q 215 897 238 888 q 194 903 200 906 q 167 871 183 900 q 132 771 147 835 q 97 469 100 643 q 97 444 97 457 q 124 181 97 286 q 156 99 138 125 q 171 83 165 83 l 174 86 q 199 103 189 93 q 257 164 224 125 q 290 208 274 185 q 315 246 307 232 l 325 258 l 407 207 q 332 103 374 156 q 263 29 294 57 q 172 -14 214 -14 q 171 -14 171 -14 q 75 44 114 -14 q 29 157 47 85 q 0 443 0 274 q 0 471 0 457 q 38 794 3 656 q 82 917 56 869 q 163 996 115 979 q 201 1000 182 1001 z "},"è":{"ha":438,"x_min":0,"x_max":356,"o":"m 136 1286 l 207 1151 l 133 1113 l 63 1247 l 136 1286 m 0 992 l 356 957 l 346 860 l 99 885 l 104 461 l 268 464 l 269 367 l 106 364 l 110 119 l 325 161 l 343 65 l 14 1 l 0 992 z "},"é":{"ha":438,"x_min":0,"x_max":356,"o":"m 197 1290 l 271 1251 l 200 1117 l 126 1156 l 197 1290 m 0 992 l 356 957 l 346 860 l 99 885 l 104 461 l 268 464 l 269 367 l 106 364 l 110 119 l 325 161 l 343 65 l 14 1 l 0 992 z "},"ê":{"ha":438,"x_min":0,"x_max":356,"o":"m 175 1303 l 282 1163 l 215 1111 l 171 1169 l 124 1114 l 60 1168 l 175 1303 m 0 992 l 356 957 l 346 860 l 99 885 l 104 461 l 268 464 l 269 367 l 106 364 l 110 119 l 325 161 l 343 65 l 14 1 l 0 992 z "},"ë":{"ha":438,"x_min":0,"x_max":356,"o":"m 47 1225 l 131 1225 l 129 1143 l 46 1144 l 47 1225 m 208 1225 l 292 1225 l 290 1143 l 207 1144 l 208 1225 m 0 992 l 356 957 l 346 860 l 99 885 l 104 461 l 268 464 l 269 367 l 106 364 l 110 119 l 325 161 l 343 65 l 14 1 l 0 992 z "},"ì":{"ha":181,"x_min":-65,"x_max":97,"o":"m 8 1240 l 79 1106 l 6 1067 l -65 1201 l 8 1240 m 0 990 l 97 990 l 97 1 l 0 1 l 0 990 z "},"í":{"ha":181,"x_min":-1,"x_max":144,"o":"m 69 1244 l 143 1206 l 72 1071 l -1 1110 l 69 1244 m 0 990 l 97 990 l 97 1 l 0 1 l 0 990 z "},"î":{"ha":181,"x_min":-68,"x_max":154,"o":"m 47 1257 l 154 1117 l 88 1065 l 43 1124 l -4 1068 l -68 1122 l 47 1257 m 0 990 l 97 990 l 97 1 l 0 1 l 0 990 z "},"ï":{"ha":181,"x_min":-82,"x_max":165,"o":"m -81 1179 l 3 1179 l 1 1097 l -82 1099 l -81 1179 m 81 1179 l 164 1179 l 163 1097 l 79 1099 l 81 1179 m 0 990 l 97 990 l 97 1 l 0 1 l 0 990 z "},"ñ":{"ha":579,"x_min":0,"x_max":497,"o":"m 199 1253 q 217 1250 208 1253 q 233 1243 225 1247 q 244 1237 240 1239 q 256 1228 249 1235 q 265 1221 264 1221 q 293 1203 281 1210 q 301 1215 296 1207 l 324 1250 l 394 1207 l 372 1171 q 335 1131 356 1143 q 293 1119 315 1119 q 282 1119 288 1119 q 215 1154 256 1124 q 194 1167 207 1160 q 189 1158 192 1163 l 171 1121 l 96 1157 l 114 1194 q 147 1239 129 1224 q 193 1253 168 1253 q 199 1253 196 1253 m 94 992 l 363 254 l 399 953 l 496 949 l 446 11 l 351 -3 l 106 674 l 125 15 l 28 13 l 0 974 l 94 992 z "},"ò":{"ha":536,"x_min":0,"x_max":454,"o":"m 196 1263 l 267 1128 l 193 1089 l 122 1224 l 196 1263 m 231 1001 q 232 1001 232 1001 q 342 946 294 1001 q 404 826 379 903 q 454 494 451 688 q 454 479 454 488 q 408 163 454 292 q 340 42 382 85 q 224 -12 290 -12 q 221 -12 222 -12 q 100 43 151 -11 q 35 165 60 88 q 0 431 0 275 q 1 497 0 464 q 63 826 11 688 q 125 944 89 901 q 231 1001 172 1001 m 232 904 q 200 882 218 904 q 153 793 175 853 q 99 493 107 668 q 97 433 97 463 q 128 196 97 290 q 172 110 146 138 q 222 85 194 85 q 224 85 224 85 q 269 108 249 85 q 317 194 297 136 q 357 481 357 308 q 357 493 357 488 q 313 794 356 671 q 268 883 293 854 q 232 904 249 906 z "},"ó":{"ha":536,"x_min":0,"x_max":454,"o":"m 257 1267 l 331 1228 l 260 1093 l 186 1132 l 257 1267 m 231 1001 q 232 1001 232 1001 q 342 946 294 1001 q 404 826 379 903 q 454 494 451 688 q 454 479 454 488 q 408 163 454 292 q 340 42 382 85 q 224 -12 290 -12 q 221 -12 222 -12 q 100 43 151 -11 q 35 165 60 88 q 0 431 0 275 q 1 497 0 464 q 63 826 11 688 q 125 944 89 901 q 231 1001 172 1001 m 232 904 q 200 882 218 904 q 153 793 175 853 q 99 493 107 668 q 97 433 97 463 q 128 196 97 290 q 172 110 146 138 q 222 85 194 85 q 224 85 224 85 q 269 108 249 85 q 317 194 297 136 q 357 481 357 308 q 357 493 357 488 q 313 794 356 671 q 268 883 293 854 q 232 904 249 906 z "},"ô":{"ha":536,"x_min":0,"x_max":454,"o":"m 235 1279 l 342 1139 l 275 1088 l 231 1146 l 183 1090 l 119 1144 l 235 1279 m 231 1001 q 232 1001 232 1001 q 342 946 294 1001 q 404 826 379 903 q 454 494 451 688 q 454 479 454 488 q 408 163 454 292 q 340 42 382 85 q 224 -12 290 -12 q 221 -12 222 -12 q 100 43 151 -11 q 35 165 60 88 q 0 431 0 275 q 1 497 0 464 q 63 826 11 688 q 125 944 89 901 q 231 1001 172 1001 m 232 904 q 200 882 218 904 q 153 793 175 853 q 99 493 107 668 q 97 433 97 463 q 128 196 97 290 q 172 110 146 138 q 222 85 194 85 q 224 85 224 85 q 269 108 249 85 q 317 194 297 136 q 357 481 357 308 q 357 493 357 488 q 313 794 356 671 q 268 883 293 854 q 232 904 249 906 z "},"õ":{"ha":536,"x_min":0,"x_max":454,"o":"m 172 1244 q 190 1242 182 1244 q 206 1235 199 1239 q 218 1228 214 1231 q 230 1219 222 1226 q 239 1213 238 1213 q 267 1194 254 1201 q 275 1207 269 1199 l 297 1242 l 368 1199 l 346 1163 q 308 1122 329 1135 q 267 1111 289 1111 q 256 1111 261 1111 q 189 1146 229 1115 q 168 1158 181 1151 q 163 1150 165 1154 l 144 1113 l 69 1149 l 88 1186 q 121 1231 103 1215 q 167 1244 142 1244 q 172 1244 169 1244 m 231 1001 q 232 1001 232 1001 q 342 946 294 1001 q 404 826 379 903 q 454 494 451 688 q 454 479 454 488 q 408 163 454 292 q 340 42 382 85 q 224 -12 290 -12 q 221 -12 222 -12 q 100 43 151 -11 q 35 165 60 88 q 0 431 0 275 q 1 497 0 464 q 63 826 11 688 q 125 944 89 901 q 231 1001 172 1001 m 232 904 q 200 882 218 904 q 153 793 175 853 q 99 493 107 668 q 97 433 97 463 q 128 196 97 290 q 172 110 146 138 q 222 85 194 85 q 224 85 224 85 q 269 108 249 85 q 317 194 297 136 q 357 481 357 308 q 357 493 357 488 q 313 794 356 671 q 268 883 293 854 q 232 904 249 906 z "},"ö":{"ha":536,"x_min":0,"x_max":454,"o":"m 107 1201 l 190 1201 l 189 1119 l 106 1121 l 107 1201 m 268 1201 l 351 1201 l 350 1119 l 267 1121 l 268 1201 m 231 1001 q 232 1001 232 1001 q 342 946 294 1001 q 404 826 379 903 q 454 494 451 688 q 454 479 454 488 q 408 163 454 292 q 340 42 382 85 q 224 -12 290 -12 q 221 -12 222 -12 q 100 43 151 -11 q 35 165 60 88 q 0 431 0 275 q 1 497 0 464 q 63 826 11 688 q 125 944 89 901 q 231 1001 172 1001 m 232 904 q 200 882 218 904 q 153 793 175 853 q 99 493 107 668 q 97 433 97 463 q 128 196 97 290 q 172 110 146 138 q 222 85 194 85 q 224 85 224 85 q 269 108 249 85 q 317 194 297 136 q 357 481 357 308 q 357 493 357 488 q 313 794 356 671 q 268 883 293 854 q 232 904 249 906 z "},"ø":{"ha":576,"x_min":0,"x_max":494,"o":"m 260 904 q 228 882 246 904 q 181 793 203 853 q 126 493 135 668 q 125 433 125 463 q 128 350 125 390 l 335 813 q 296 883 317 858 q 260 904 276 906 m 258 1001 q 260 1001 260 1001 q 369 946 322 1001 q 385 926 378 936 l 404 971 l 493 932 l 439 808 q 482 494 481 674 q 482 479 482 488 q 436 163 482 292 q 368 42 410 85 q 251 -12 318 -12 q 249 -12 250 -12 q 129 43 179 -11 q 110 68 118 54 l 89 22 l 0 61 l 56 188 q 28 431 28 292 q 29 497 28 464 q 90 826 39 688 q 153 944 117 901 q 258 1001 200 1001 m 372 658 l 160 182 q 200 110 178 135 q 250 85 222 85 q 251 85 251 85 q 297 108 276 85 q 344 194 325 136 q 385 481 385 308 q 385 493 385 488 q 372 658 383 578 z "},"ù":{"ha":528,"x_min":0,"x_max":446,"o":"m 189 1261 l 260 1126 l 186 1088 l 115 1222 l 189 1261 m 6 992 l 103 986 q 97 747 97 883 q 104 510 97 618 q 150 194 117 306 q 190 108 168 135 q 219 92 206 90 q 251 118 235 94 q 292 213 274 150 q 339 519 324 325 q 349 815 349 654 q 346 967 349 815 l 443 971 q 446 815 446 908 q 435 513 446 651 q 385 185 421 307 q 332 64 363 108 q 232 -4 290 3 q 218 -6 225 -6 q 117 46 158 -6 q 57 165 82 88 q 7 503 19 288 q 0 749 0 615 q 6 992 0 888 z "},"ú":{"ha":528,"x_min":0,"x_max":446,"o":"m 250 1265 l 324 1226 l 253 1092 l 179 1131 l 250 1265 m 6 992 l 103 986 q 97 747 97 883 q 104 510 97 618 q 150 194 117 306 q 190 108 168 135 q 219 92 206 90 q 251 118 235 94 q 292 213 274 150 q 339 519 324 325 q 349 815 349 654 q 346 967 349 815 l 443 971 q 446 815 446 908 q 435 513 446 651 q 385 185 421 307 q 332 64 363 108 q 232 -4 290 3 q 218 -6 225 -6 q 117 46 158 -6 q 57 165 82 88 q 7 503 19 288 q 0 749 0 615 q 6 992 0 888 z "},"û":{"ha":528,"x_min":0,"x_max":446,"o":"m 228 1278 l 335 1138 l 268 1086 l 224 1144 l 176 1089 l 113 1143 l 228 1278 m 6 992 l 103 986 q 97 747 97 883 q 104 510 97 618 q 150 194 117 306 q 190 108 168 135 q 219 92 206 90 q 251 118 235 94 q 292 213 274 150 q 339 519 324 325 q 349 815 349 654 q 346 967 349 815 l 443 971 q 446 815 446 908 q 435 513 446 651 q 385 185 421 307 q 332 64 363 108 q 232 -4 290 3 q 218 -6 225 -6 q 117 46 158 -6 q 57 165 82 88 q 7 503 19 288 q 0 749 0 615 q 6 992 0 888 z "},"ü":{"ha":528,"x_min":0,"x_max":446,"o":"m 100 1200 l 183 1200 l 182 1118 l 99 1119 l 100 1200 m 261 1200 l 344 1200 l 343 1118 l 260 1119 l 261 1200 m 6 992 l 103 986 q 97 747 97 883 q 104 510 97 618 q 150 194 117 306 q 190 108 168 135 q 219 92 206 90 q 251 118 235 94 q 292 213 274 150 q 339 519 324 325 q 349 815 349 654 q 346 967 349 815 l 443 971 q 446 815 446 908 q 435 513 446 651 q 385 185 421 307 q 332 64 363 108 q 232 -4 290 3 q 218 -6 225 -6 q 117 46 158 -6 q 57 165 82 88 q 7 503 19 288 q 0 749 0 615 q 6 992 0 888 z "},"ý":{"ha":603,"x_min":0,"x_max":521,"o":"m 285 1247 l 358 1208 l 288 1074 l 214 1113 l 285 1247 m 428 992 l 519 960 l 181 0 l 89 33 l 199 343 l 0 958 l 93 989 l 251 494 l 428 992 z "},"ÿ":{"ha":603,"x_min":0,"x_max":521,"o":"m 135 1182 l 218 1182 l 217 1100 l 133 1101 l 135 1182 m 296 1182 l 379 1182 l 378 1100 l 294 1101 l 296 1182 m 428 992 l 519 960 l 181 0 l 89 33 l 199 343 l 0 958 l 93 989 l 251 494 l 428 992 z "},"ˊ":{"ha":228,"x_min":0,"x_max":146,"o":"m 71 929 l 144 890 l 74 756 l 0 794 l 71 929 z "},"ˋ":{"ha":228,"x_min":0,"x_max":146,"o":"m 74 929 l 144 794 l 71 756 l 0 890 l 74 929 z "},"ˆ":{"ha":304,"x_min":0,"x_max":222,"o":"m 115 942 l 222 801 l 156 750 l 111 808 l 64 753 l 0 807 l 115 942 z "},"˜":{"ha":381,"x_min":0,"x_max":299,"o":"m 103 889 q 121 886 113 889 q 137 879 129 883 q 149 873 144 875 q 160 864 153 871 q 169 857 168 857 q 197 839 185 846 q 206 851 200 843 l 228 886 l 299 843 l 276 807 q 239 767 260 779 q 197 756 219 756 q 186 756 192 756 q 119 790 160 760 q 99 803 111 796 q 93 794 96 799 l 75 757 l 0 793 l 18 831 q 51 875 33 860 q 97 889 72 889 q 103 889 100 889 z "},"ˇ":{"ha":304,"x_min":0,"x_max":222,"o":"m 156 935 l 222 885 l 115 743 l 0 879 l 64 932 l 111 876 l 156 935 z "},"¨":{"ha":329,"x_min":0,"x_max":247,"o":"m 1 878 l 85 878 l 83 796 l 0 797 l 1 878 m 163 878 l 246 878 l 244 796 l 161 797 l 163 878 z "},"¸":{"ha":276,"x_min":0,"x_max":194,"o":"m 25 939 l 108 939 l 108 882 q 118 879 115 881 q 167 850 147 872 q 193 783 190 824 q 194 760 194 771 q 175 665 194 706 q 141 623 164 640 q 90 606 118 606 q 85 606 88 606 q 25 635 49 608 q 4 682 10 654 q 0 717 0 699 q 1 736 0 736 l 83 725 q 85 699 82 711 q 89 689 86 692 q 92 689 89 689 q 92 688 92 689 q 100 700 94 688 q 111 761 111 724 q 110 778 111 769 q 106 794 110 790 q 97 799 103 797 l 76 800 l 25 788 l 25 939 z "}}}
